<svg width="148" height="38" viewBox="0 0 148 38" fill="none" xmlns="http://www.w3.org/2000/svg">
<path d="M21.9287 17.5817C21.9446 16.3447 22.2732 15.1319 22.8838 14.0561C23.4944 12.9803 24.3672 12.0764 25.421 11.4285C24.7515 10.4724 23.8684 9.68558 22.8416 9.13051C21.8149 8.57544 20.6729 8.26742 19.5063 8.23092C17.0177 7.96971 14.6052 9.72003 13.3371 9.72003C12.0444 9.72003 10.0919 8.25686 7.98943 8.30011C6.62948 8.34405 5.3041 8.73952 4.14243 9.44798C2.98076 10.1564 2.02241 11.1537 1.36077 12.3427C-1.50533 17.3049 0.632523 24.5977 3.37801 28.6087C4.75163 30.5728 6.357 32.7668 8.45759 32.689C10.5132 32.6037 11.2809 31.3782 13.7621 31.3782C16.2203 31.3782 16.9406 32.689 19.0838 32.6395C21.2895 32.6037 22.6792 30.6667 24.0046 28.684C24.9916 27.2845 25.751 25.7377 26.2549 24.101C24.9734 23.559 23.8798 22.6518 23.1105 21.4925C22.3412 20.3332 21.9302 18.973 21.9287 17.5817Z" fill="white"/>
<path d="M17.8799 5.59274C19.0825 4.149 19.675 2.29333 19.5315 0.4198C17.6941 0.612781 15.9969 1.49093 14.778 2.87926C14.1821 3.5575 13.7256 4.34655 13.4348 5.2013C13.144 6.05604 13.0245 6.95973 13.0831 7.86069C14.0021 7.87015 14.9113 7.67096 15.7422 7.27811C16.5731 6.88526 17.304 6.309 17.8799 5.59274Z" fill="white"/>
<path d="M47.9111 27.7165H40.8964L39.2119 32.6906H36.2407L42.8849 14.2877H45.9718L52.616 32.6906H49.5942L47.9111 27.7165ZM41.6229 25.4212H47.1832L44.4422 17.3486H44.3655L41.6229 25.4212Z" fill="white"/>
<path d="M66.9656 25.9828C66.9656 30.1522 64.734 32.831 61.3664 32.831C60.5133 32.8757 59.6648 32.6791 58.9182 32.264C58.1716 31.8488 57.557 31.2318 57.1448 30.4836H57.0811V37.1293H54.327V19.2735H56.9929V21.5051H57.0435C57.4747 20.7605 58.0997 20.1466 58.852 19.729C59.6042 19.3113 60.4557 19.1054 61.3157 19.1331C64.7209 19.1331 66.9656 21.8249 66.9656 25.9828ZM64.1349 25.9828C64.1349 23.2664 62.7311 21.4805 60.5892 21.4805C58.4849 21.4805 57.0695 23.304 57.0695 25.9828C57.0695 28.6862 58.4849 30.4967 60.5892 30.4967C62.7311 30.4967 64.1349 28.7238 64.1349 25.9828Z" fill="white"/>
<path d="M81.7333 25.9828C81.7333 30.1523 79.5017 32.8311 76.1341 32.8311C75.281 32.8757 74.4325 32.6792 73.6859 32.264C72.9393 31.8489 72.3247 31.2319 71.9125 30.4837H71.8488V37.1293H69.0947V19.2735H71.7605V21.5051H71.8111C72.2423 20.7605 72.8673 20.1467 73.6196 19.729C74.3719 19.3113 75.2233 19.1054 76.0834 19.1332C79.4887 19.1332 81.7333 21.825 81.7333 25.9828ZM78.9026 25.9828C78.9026 23.2664 77.4988 21.4805 75.3569 21.4805C73.2526 21.4805 71.8372 23.304 71.8372 25.9828C71.8372 28.6863 73.2526 30.4967 75.3569 30.4967C77.4988 30.4967 78.9026 28.7239 78.9026 25.9828H78.9026Z" fill="white"/>
<path d="M91.4934 27.5632C91.6975 29.3881 93.4704 30.5864 95.893 30.5864C98.2143 30.5864 99.8844 29.3881 99.8844 27.7426C99.8844 26.3142 98.8771 25.4589 96.4921 24.8728L94.1071 24.2982C90.7279 23.482 89.1591 21.9016 89.1591 19.3371C89.1591 16.1619 91.9262 13.981 95.8553 13.981C99.744 13.981 102.41 16.1619 102.5 19.3371H99.7194C99.553 17.5006 98.0348 16.392 95.8162 16.392C93.5977 16.392 92.0795 17.5136 92.0795 19.1461C92.0795 20.4471 93.0492 21.2127 95.4211 21.7988L97.4487 22.2966C101.224 23.1896 102.793 24.7063 102.793 27.3981C102.793 30.841 100.051 32.9974 95.6889 32.9974C91.6077 32.9974 88.8522 30.8917 88.6742 27.5631L91.4934 27.5632Z" fill="white"/>
<path d="M108.737 16.0984V19.2737H111.289V21.4546H108.737V28.8514C108.737 30.0004 109.248 30.5359 110.37 30.5359C110.673 30.5306 110.975 30.5094 111.276 30.4722V32.6401C110.771 32.7344 110.259 32.777 109.746 32.7675C107.03 32.7675 105.97 31.7472 105.97 29.1451V21.4546H104.019V19.2737H105.97V16.0984H108.737Z" fill="white"/>
<path d="M112.766 25.9829C112.766 21.7613 115.252 19.1086 119.13 19.1086C123.02 19.1086 125.494 21.7613 125.494 25.9829C125.494 30.216 123.033 32.8572 119.13 32.8572C115.228 32.8572 112.766 30.216 112.766 25.9829ZM122.688 25.9829C122.688 23.087 121.361 21.3778 119.13 21.3778C116.898 21.3778 115.572 23.1 115.572 25.9829C115.572 28.8903 116.898 30.5865 119.13 30.5865C121.361 30.5865 122.688 28.8903 122.688 25.9829H122.688Z" fill="white"/>
<path d="M127.765 19.2735H130.392V21.5572H130.456C130.634 20.8439 131.051 20.2136 131.639 19.7721C132.227 19.3307 132.949 19.105 133.683 19.1331C134.001 19.132 134.317 19.1664 134.627 19.2358V21.8119C134.226 21.6894 133.808 21.6332 133.389 21.6455C132.989 21.6292 132.59 21.6998 132.22 21.8522C131.85 22.0047 131.517 22.2355 131.244 22.5288C130.972 22.822 130.766 23.1708 130.641 23.5512C130.515 23.9316 130.474 24.3345 130.519 24.7324V32.6906H127.765L127.765 19.2735Z" fill="white"/>
<path d="M147.325 28.7499C146.954 31.1856 144.582 32.8571 141.547 32.8571C137.644 32.8571 135.221 30.242 135.221 26.0465C135.221 21.838 137.657 19.1085 141.431 19.1085C145.144 19.1085 147.478 21.6585 147.478 25.7267V26.6702H138.002V26.8367C137.958 27.3305 138.02 27.8279 138.183 28.296C138.346 28.764 138.607 29.192 138.949 29.5514C139.29 29.9109 139.704 30.1936 140.163 30.3808C140.622 30.5679 141.116 30.6553 141.611 30.6371C142.262 30.698 142.915 30.5473 143.473 30.2073C144.031 29.8673 144.465 29.3561 144.709 28.7499L147.325 28.7499ZM138.015 24.7454H144.722C144.747 24.3015 144.68 23.8571 144.525 23.4404C144.37 23.0237 144.13 22.6435 143.821 22.3237C143.512 22.004 143.14 21.7516 142.729 21.5823C142.318 21.413 141.876 21.3306 141.431 21.3401C140.983 21.3375 140.538 21.4236 140.123 21.5937C139.708 21.7637 139.331 22.0143 139.013 22.3309C138.696 22.6474 138.444 23.0238 138.273 23.4383C138.101 23.8527 138.013 24.297 138.015 24.7455V24.7454Z" fill="white"/>
<path d="M41.279 0.435754C41.8564 0.39432 42.4358 0.481548 42.9754 0.691145C43.515 0.900742 44.0014 1.22748 44.3994 1.6478C44.7974 2.06812 45.0972 2.57154 45.2771 3.12175C45.457 3.67195 45.5126 4.25523 45.4398 4.82951C45.4398 7.65448 43.913 9.27833 41.279 9.27833H38.085V0.435754L41.279 0.435754ZM39.4584 8.0278H41.1256C41.5382 8.05246 41.9511 7.98482 42.3342 7.82978C42.7174 7.67475 43.0611 7.43623 43.3405 7.13159C43.6198 6.82695 43.8277 6.46386 43.949 6.06875C44.0703 5.67363 44.102 5.25644 44.0418 4.84753C44.0976 4.44024 44.0627 4.02563 43.9396 3.63341C43.8164 3.24119 43.608 2.88107 43.3293 2.57886C43.0506 2.27664 42.7085 2.03981 42.3275 1.88534C41.9465 1.73087 41.5361 1.66257 41.1256 1.68535H39.4584V8.0278Z" fill="white"/>
<path d="M46.991 5.93878C46.9491 5.50025 46.9992 5.05778 47.1383 4.63977C47.2774 4.22176 47.5023 3.83742 47.7986 3.51142C48.0949 3.18542 48.456 2.92494 48.8589 2.7467C49.2618 2.56845 49.6975 2.47638 50.138 2.47638C50.5785 2.47638 51.0142 2.56845 51.4171 2.7467C51.82 2.92494 52.1811 3.18542 52.4774 3.51142C52.7737 3.83742 52.9986 4.22176 53.1377 4.63977C53.2768 5.05778 53.3269 5.50025 53.285 5.93878C53.3277 6.37777 53.2782 6.82085 53.1395 7.23954C53.0008 7.65823 52.776 8.04326 52.4796 8.36991C52.1832 8.69655 51.8218 8.95757 51.4185 9.1362C51.0153 9.31483 50.5791 9.40711 50.138 9.40711C49.6969 9.40711 49.2608 9.31483 48.8575 9.1362C48.4542 8.95757 48.0928 8.69655 47.7964 8.36991C47.5 8.04326 47.2752 7.65823 47.1365 7.23954C46.9978 6.82085 46.9483 6.37777 46.991 5.93878ZM51.9304 5.93878C51.9304 4.49229 51.2806 3.64639 50.1402 3.64639C48.9954 3.64639 48.3515 4.49229 48.3515 5.9388C48.3515 7.39688 48.9955 8.23626 50.1402 8.23626C51.2806 8.23624 51.9304 7.39107 51.9304 5.93878H51.9304Z" fill="white"/>
<path d="M61.6509 9.27817H60.2847L58.9055 4.36341H58.8013L57.4279 9.27817H56.0748L54.2354 2.60504H55.5711L56.7665 7.69703H56.865L58.2369 2.60504H59.5004L60.8723 7.69703H60.9765L62.1661 2.60504L63.4831 2.60504L61.6509 9.27817Z" fill="white"/>
<path d="M65.0302 2.60499H66.2979V3.66507H66.3963C66.5633 3.28433 66.8449 2.96515 67.2018 2.75204C67.5588 2.53893 67.9733 2.44249 68.3877 2.47617C68.7124 2.45176 69.0384 2.50072 69.3416 2.61942C69.6448 2.73812 69.9175 2.92351 70.1393 3.16188C70.3611 3.40024 70.5265 3.68546 70.6231 3.9964C70.7197 4.30735 70.7451 4.63604 70.6975 4.95815V9.27804H69.3805V5.28886C69.3805 4.21648 68.9145 3.68317 67.9405 3.68317C67.7201 3.6729 67.5 3.71042 67.2954 3.79316C67.0908 3.87589 66.9065 4.00189 66.7552 4.16251C66.6038 4.32314 66.489 4.51458 66.4186 4.72373C66.3481 4.93288 66.3238 5.15479 66.3471 5.37424V9.27812H65.0302L65.0302 2.60499Z" fill="white"/>
<path d="M72.796 0L74.113 0V9.27813H72.796V0Z" fill="white"/>
<path d="M75.9431 5.9386C75.9012 5.50004 75.9514 5.05755 76.0905 4.63952C76.2296 4.22149 76.4545 3.83714 76.7508 3.51113C77.0472 3.18512 77.4084 2.92464 77.8113 2.74639C78.2142 2.56815 78.6499 2.47607 79.0904 2.47607C79.531 2.47607 79.9667 2.56815 80.3696 2.74639C80.7725 2.92464 81.1337 3.18512 81.43 3.51113C81.7264 3.83714 81.9513 4.22149 82.0904 4.63952C82.2295 5.05755 82.2797 5.50004 82.2378 5.9386C82.2805 6.37761 82.2308 6.82069 82.0921 7.23938C81.9534 7.65806 81.7286 8.04309 81.4321 8.36973C81.1357 8.69636 80.7743 8.95737 80.371 9.13599C79.9677 9.31461 79.5315 9.40689 79.0904 9.40689C78.6493 9.40689 78.2131 9.31461 77.8099 9.13599C77.4066 8.95737 77.0451 8.69636 76.7487 8.36973C76.4523 8.04309 76.2275 7.65806 76.0887 7.23938C75.95 6.82069 75.9004 6.37761 75.9431 5.9386ZM80.8824 5.9386C80.8824 4.49211 80.2326 3.64621 79.0922 3.64621C77.9475 3.64621 77.3035 4.49211 77.3035 5.93862C77.3035 7.3967 77.9475 8.23608 79.0922 8.23608C80.2326 8.23606 80.8824 7.39089 80.8824 5.9386H80.8824Z" fill="white"/>
<path d="M83.6255 7.39119C83.6255 6.18999 84.5199 5.49751 86.1075 5.39909L87.915 5.29489V4.7189C87.915 4.0141 87.449 3.61612 86.5489 3.61612C85.8137 3.61612 85.3043 3.88603 85.1581 4.35783H83.8831C84.0177 3.21162 85.0959 2.47644 86.6097 2.47644C88.2826 2.47644 89.2262 3.3093 89.2262 4.7189V9.27837H87.9585V8.34058H87.8543C87.6428 8.67697 87.3458 8.9512 86.9936 9.13528C86.6415 9.31935 86.2468 9.40667 85.8499 9.38832C85.5697 9.41746 85.2866 9.38757 85.0187 9.30058C84.7508 9.21359 84.5042 9.07143 84.2946 8.88327C84.085 8.69511 83.9172 8.46512 83.8019 8.20812C83.6867 7.95113 83.6266 7.67284 83.6255 7.39119ZM87.915 6.82098V6.26308L86.2855 6.36728C85.3665 6.42878 84.9497 6.74138 84.9497 7.32968C84.9497 7.93027 85.4707 8.27977 86.1871 8.27977C86.397 8.30102 86.6091 8.27983 86.8106 8.21745C87.0122 8.15507 87.1991 8.05279 87.3603 7.91669C87.5215 7.78058 87.6537 7.61344 87.749 7.4252C87.8443 7.23697 87.9008 7.03148 87.915 6.82098Z" fill="white"/>
<path d="M90.9573 5.93875C90.9573 3.83015 92.0413 2.49437 93.7273 2.49437C94.1443 2.47515 94.5582 2.57504 94.9206 2.78236C95.283 2.98967 95.5788 3.29585 95.7736 3.66511H95.872V6.10352e-05L97.189 6.10352e-05V9.27819H95.927V8.22388H95.8228C95.613 8.59065 95.3068 8.89302 94.9374 9.09824C94.568 9.30347 94.1495 9.40373 93.7273 9.38816C92.0297 9.38824 90.9573 8.05242 90.9573 5.93875ZM92.3177 5.93875C92.3177 7.35414 92.9849 8.20583 94.1007 8.20583C95.2107 8.20583 95.8967 7.34185 95.8967 5.94455C95.8967 4.55376 95.2035 3.67747 94.1007 3.67747C92.9921 3.67747 92.3177 4.53494 92.3177 5.93875H92.3177Z" fill="white"/>
<path d="M102.637 5.93872C102.595 5.50019 102.646 5.05772 102.785 4.63971C102.924 4.22169 103.149 3.83736 103.445 3.51136C103.741 3.18535 104.102 2.92488 104.505 2.74663C104.908 2.56839 105.344 2.47632 105.784 2.47632C106.225 2.47632 106.661 2.56839 107.064 2.74663C107.466 2.92488 107.828 3.18535 108.124 3.51136C108.42 3.83736 108.645 4.22169 108.784 4.63971C108.923 5.05772 108.973 5.50019 108.931 5.93872C108.974 6.37771 108.925 6.82079 108.786 7.23948C108.647 7.65816 108.422 8.0432 108.126 8.36985C107.83 8.69649 107.468 8.95751 107.065 9.13614C106.662 9.31477 106.225 9.40705 105.784 9.40705C105.343 9.40705 104.907 9.31477 104.504 9.13614C104.101 8.95751 103.739 8.69649 103.443 8.36985C103.146 8.0432 102.922 7.65816 102.783 7.23948C102.644 6.82079 102.595 6.37771 102.637 5.93872ZM107.577 5.93872C107.577 4.49223 106.927 3.64633 105.787 3.64633C104.642 3.64633 103.998 4.49223 103.998 5.93874C103.998 7.39682 104.642 8.2362 105.787 8.2362C106.927 8.23618 107.577 7.39101 107.577 5.93872Z" fill="white"/>
<path d="M110.698 2.60499H111.966V3.66507H112.064C112.231 3.28433 112.513 2.96515 112.87 2.75204C113.227 2.53893 113.641 2.44249 114.056 2.47617C114.38 2.45176 114.706 2.50072 115.01 2.61942C115.313 2.73812 115.585 2.92351 115.807 3.16188C116.029 3.40024 116.194 3.68546 116.291 3.9964C116.388 4.30735 116.413 4.63604 116.365 4.95815V9.27804H115.048V5.28886C115.048 4.21648 114.582 3.68317 113.608 3.68317C113.388 3.6729 113.168 3.71042 112.963 3.79316C112.759 3.87589 112.574 4.00189 112.423 4.16251C112.272 4.32314 112.157 4.51458 112.087 4.72373C112.016 4.93288 111.992 5.15479 112.015 5.37424V9.27812H110.698V2.60499Z" fill="white"/>
<path d="M123.808 0.943726V2.63552H125.254V3.74482H123.808V7.17618C123.808 7.87519 124.096 8.18127 124.751 8.18127C124.919 8.18074 125.087 8.17059 125.254 8.15088V9.24787C125.017 9.29018 124.777 9.31269 124.537 9.31516C123.073 9.31516 122.489 8.79995 122.489 7.51337V3.74477H121.43V2.63546H122.489V0.943726L123.808 0.943726Z" fill="white"/>
<path d="M127.052 0.00012207L128.358 0.00012207V3.67752H128.462C128.637 3.29321 128.926 2.97224 129.291 2.75832C129.655 2.5444 130.076 2.44795 130.497 2.48211C130.82 2.46454 131.143 2.51846 131.442 2.64005C131.742 2.76163 132.011 2.94787 132.231 3.18548C132.451 3.4231 132.615 3.70623 132.712 4.01467C132.81 4.32312 132.838 4.64928 132.795 4.96988V9.27826H131.477V5.29477C131.477 4.22889 130.98 3.68908 130.05 3.68908C129.823 3.67051 129.596 3.70163 129.383 3.78025C129.17 3.85887 128.976 3.9831 128.816 4.14425C128.656 4.30539 128.533 4.49956 128.456 4.71316C128.379 4.92677 128.349 5.15465 128.37 5.38087V9.27823H127.053L127.052 0.00012207Z" fill="white"/>
<path d="M140.474 7.47657C140.295 8.08645 139.907 8.614 139.379 8.96693C138.85 9.31986 138.214 9.47569 137.582 9.40716C137.143 9.41876 136.706 9.33456 136.302 9.16038C135.898 8.98621 135.537 8.72625 135.244 8.39853C134.951 8.07082 134.732 7.6832 134.604 7.26259C134.475 6.84198 134.44 6.39845 134.5 5.96279C134.441 5.52578 134.477 5.08129 134.606 4.65942C134.734 4.23755 134.951 3.84814 135.243 3.51756C135.535 3.18697 135.894 2.92293 136.297 2.74331C136.699 2.56368 137.136 2.47267 137.577 2.47643C139.433 2.47643 140.554 3.74498 140.554 5.84046V6.3H135.841V6.3738C135.821 6.61869 135.852 6.86519 135.932 7.09748C136.012 7.32978 136.14 7.54275 136.307 7.72274C136.475 7.90273 136.678 8.04577 136.903 8.14269C137.129 8.2396 137.373 8.28825 137.619 8.28552C137.934 8.32334 138.253 8.26662 138.536 8.12256C138.818 7.97851 139.052 7.75363 139.206 7.47653L140.474 7.47657ZM135.841 5.326H139.212C139.229 5.10204 139.198 4.87708 139.123 4.66558C139.047 4.45408 138.928 4.26071 138.774 4.09791C138.619 3.9351 138.432 3.80646 138.224 3.72025C138.017 3.63404 137.794 3.59216 137.569 3.59731C137.342 3.59444 137.116 3.63721 136.905 3.72308C136.694 3.80895 136.502 3.93619 136.341 4.0973C136.18 4.25841 136.053 4.45012 135.967 4.66115C135.881 4.87217 135.838 5.09823 135.841 5.326H135.841Z" fill="white"/>
</svg>
