<svg width="163" height="40" viewBox="0 0 163 40" fill="none" xmlns="http://www.w3.org/2000/svg">
<path fill-rule="evenodd" clip-rule="evenodd" d="M0.58435 3.91018C0.213942 4.31097 0 4.92338 0 5.72496L0 34.1554C0 34.957 0.213942 35.5694 0.597122 35.9542L0.696111 36.0407L16.5598 20.1117V19.7558L0.683338 3.82361L0.58435 3.91018Z" fill="url(#paint0_linear_4_5343)"/>
<path fill-rule="evenodd" clip-rule="evenodd" d="M21.8386 25.4373L16.5475 20.1244V19.7525L21.8386 14.4396L21.9536 14.5101L28.2122 18.082C30.0036 19.0952 30.0036 20.7689 28.2122 21.7949L21.9536 25.3667L21.8386 25.4373Z" fill="url(#paint1_linear_4_5343)"/>
<path fill-rule="evenodd" clip-rule="evenodd" d="M21.9514 25.3671L16.5454 19.9388L0.582703 35.9673C1.16705 36.5957 2.14736 36.6662 3.24261 36.0538L21.9514 25.3671Z" fill="url(#paint2_linear_4_5343)"/>
<path fill-rule="evenodd" clip-rule="evenodd" d="M21.9523 14.5105L3.24347 3.83988C2.14821 3.21144 1.16471 3.29801 0.583557 3.92645L16.5462 19.9388L21.9523 14.5105Z" fill="url(#paint3_linear_4_5343)"/>
<path d="M83.7096 9.4471C82.3925 9.4471 81.2822 8.9844 80.4042 8.07357C79.5334 7.18825 79.0472 5.96774 79.0689 4.72173C79.0689 3.39192 79.5189 2.26614 80.4042 1.37353C81.2786 0.462701 82.3889 0 83.706 0C85.0085 0 86.1188 0.462701 87.0114 1.37353C87.8967 2.29528 88.3466 3.42107 88.3466 4.72173C88.3321 6.05518 87.8822 7.18096 87.0114 8.06993C86.137 8.98804 85.0267 9.4471 83.7096 9.4471ZM44.5199 9.4471C43.2318 9.4471 42.1143 8.99168 41.2 8.09179C40.2929 7.19553 39.8321 6.06247 39.8321 4.72537C39.8321 3.38828 40.2929 2.25521 41.2 1.35895C42.0962 0.459057 43.2137 0.00364353 44.5199 0.00364353C45.1585 0.00364353 45.7789 0.13116 46.374 0.389834C46.9581 0.641223 47.4335 0.983693 47.7854 1.40267L47.8725 1.50833L46.8892 2.47745L46.7876 2.35722C46.2325 1.69414 45.4887 1.36988 44.5054 1.36988C43.6273 1.36988 42.8618 1.68321 42.2304 2.30257C41.5955 2.92558 41.2725 3.74168 41.2725 4.72901C41.2725 5.71635 41.5955 6.53245 42.2304 7.15546C42.8618 7.77482 43.6273 8.08814 44.5054 8.08814C45.4415 8.08814 46.2289 7.77482 46.842 7.15546C47.2049 6.79113 47.4298 6.28106 47.5097 5.6362H44.3566V4.2736H48.863L48.8812 4.39747C48.9138 4.627 48.9465 4.86382 48.9465 5.08241C48.9465 6.33936 48.5691 7.35584 47.8217 8.10636C46.9727 8.99533 45.8624 9.4471 44.5199 9.4471ZM96.6265 9.254H95.2368L90.9808 2.41551L91.0171 3.64695V9.25036H89.6274V0.19674L91.213 0.19674L91.2565 0.265962L95.2586 6.70733L95.2223 5.47954V0.19674L96.6265 0.19674V9.254ZM73.2672 9.254H71.8594V1.55934L69.4176 1.55934V0.19674L75.7055 0.19674V1.55934H73.2636V9.254H73.2672ZM68.271 9.254H66.8668V0.19674L68.271 0.19674V9.254ZM60.3794 9.254H58.9752V1.55934H56.5333V0.19674L62.8212 0.19674V1.55934H60.3794V9.254ZM55.6444 9.23943H50.2599V0.19674L55.6444 0.19674V1.55934L51.6677 1.55934V4.04407H55.2562V5.3921H51.6677V7.87683H55.6444V9.23943ZM81.4346 7.13724C82.0623 7.76753 82.8243 8.0845 83.7096 8.0845C84.6203 8.0845 85.3641 7.77482 85.9846 7.13724C86.6014 6.51788 86.9134 5.70542 86.9134 4.72537C86.9134 3.74532 86.6014 2.92922 85.9882 2.3135C85.3605 1.68321 84.5949 1.36624 83.7132 1.36624C82.8025 1.36624 82.0587 1.67592 81.4419 2.3135C80.8251 2.93286 80.513 3.74532 80.513 4.72537C80.513 5.70542 80.8214 6.52152 81.4346 7.13724Z" fill="white"/>
<path fill-rule="evenodd" clip-rule="evenodd" d="M78.938 21.9003C75.5092 21.9003 72.7299 24.5126 72.7299 28.1158C72.7299 31.6862 75.5274 34.3313 78.938 34.3313C82.3668 34.3313 85.1461 31.7008 85.1461 28.1158C85.1461 24.5126 82.3668 21.9003 78.938 21.9003ZM78.938 31.8684C77.0622 31.8684 75.4475 30.3091 75.4475 28.1012C75.4475 25.8606 77.0658 24.334 78.938 24.334C80.8139 24.334 82.4285 25.8606 82.4285 28.1012C82.4321 30.3236 80.8139 31.8684 78.938 31.8684ZM65.3933 21.9003C61.9645 21.9003 59.1852 24.5126 59.1852 28.1158C59.1852 31.6862 61.9827 34.3313 65.3933 34.3313C68.8221 34.3313 71.6015 31.7008 71.6015 28.1158C71.6015 24.5126 68.8185 21.9003 65.3933 21.9003ZM65.3933 31.8684C63.5175 31.8684 61.9028 30.3091 61.9028 28.1012C61.9028 25.8606 63.5211 24.334 65.3933 24.334C67.2692 24.334 68.8838 25.8606 68.8838 28.1012C68.8838 30.3236 67.2692 31.8684 65.3933 31.8684ZM49.2761 23.7985V26.4289H55.5641C55.3718 27.9045 54.8856 28.9938 54.1418 29.7407C53.2202 30.6661 51.7978 31.6717 49.2906 31.6717C45.4264 31.6717 42.404 28.5384 42.404 24.6583C42.404 20.7782 45.4264 17.6449 49.2906 17.6449C51.3769 17.6449 52.8972 18.4719 54.0257 19.5285L55.8834 17.6631C54.3159 16.1548 52.2296 14.9999 49.3051 14.9999C44.0041 14.9999 39.5557 19.3354 39.5557 24.6437C39.5557 29.9666 44.0005 34.2875 49.3051 34.2875C52.1679 34.2875 54.3159 33.3476 56.014 31.5769C57.7447 29.8391 58.2926 27.3871 58.2926 25.4088C58.2926 24.7931 58.2454 24.2393 58.1475 23.7693H49.2725C49.2761 23.7657 49.2761 23.7985 49.2761 23.7985ZM115.2 25.846C114.681 24.4506 113.114 21.8857 109.899 21.8857C106.713 21.8857 104.064 24.4033 104.064 28.1012C104.064 31.5915 106.684 34.3167 110.207 34.3167C113.037 34.3167 114.685 32.5788 115.363 31.5587L113.262 30.1451C112.566 31.1834 111.597 31.8647 110.222 31.8647C108.832 31.8647 107.86 31.2308 107.214 29.9812L115.49 26.5382C115.49 26.5419 115.2 25.846 115.2 25.846ZM106.76 27.9227C106.695 25.5217 108.618 24.3012 109.993 24.3012C111.078 24.3012 111.982 24.8368 112.29 25.6165L106.76 27.9227ZM100.037 33.9451H102.755V15.6848H100.037V33.9451ZM95.5741 23.2811H95.4761C94.8629 22.5488 93.6982 21.8857 92.2106 21.8857C89.1228 21.8857 86.2782 24.6146 86.2782 28.1194C86.2782 31.6097 89.1083 34.3058 92.2106 34.3058C93.6801 34.3058 94.8629 33.639 95.4761 32.8922H95.5741V33.7848C95.5741 36.1566 94.3114 37.4354 92.2759 37.4354C90.6105 37.4354 89.5764 36.2331 89.1555 35.2275L86.7934 36.2185C87.4719 37.858 89.2825 39.8873 92.2723 39.8873C95.458 39.8873 98.1575 38.0037 98.1575 33.4095V22.2573L95.5886 22.2573V23.2811C95.5922 23.2811 95.5741 23.2811 95.5741 23.2811ZM92.4537 31.8684C90.5778 31.8684 89.0104 30.2945 89.0104 28.1194C89.0104 25.9262 90.5778 24.3377 92.4537 24.3377C94.3114 24.3377 95.7519 25.9444 95.7519 28.1194C95.77 30.2945 94.315 31.8684 92.4537 31.8684ZM127.925 15.6848H121.426V33.9451H124.144V27.0301H127.928C130.936 27.0301 133.893 24.8405 133.893 21.3647C133.893 17.889 130.947 15.6848 127.925 15.6848ZM128.004 24.4798H124.14V18.2133H128.004C130.04 18.2133 131.19 19.9001 131.19 21.3465C131.19 22.7783 130.025 24.4798 128.004 24.4798ZM144.786 21.8675C142.812 21.8675 140.776 22.7455 139.934 24.6583L142.344 25.6638C142.863 24.6583 143.813 24.3158 144.818 24.3158C146.226 24.3158 147.648 25.1611 147.681 26.6694V26.8625C147.195 26.5856 146.128 26.163 144.851 26.163C142.249 26.163 139.612 27.5911 139.612 30.269C139.612 32.7209 141.745 34.2948 144.122 34.2948C145.947 34.2948 146.952 33.4678 147.579 32.5096H147.677V33.9232H150.297V26.9281C150.297 23.671 147.888 21.8675 144.786 21.8675ZM144.445 31.8684C143.556 31.8684 142.311 31.4312 142.311 30.3091C142.311 28.8955 143.864 28.3599 145.188 28.3599C146.386 28.3599 146.952 28.6186 147.663 28.9756C147.467 30.6151 146.088 31.8538 144.445 31.8684ZM159.854 22.2573L156.734 30.1779H156.636L153.403 22.2573H150.479L155.33 33.3294L152.565 39.4829H155.395L162.859 22.2573H159.854ZM135.392 33.9451H138.109V15.6848H135.392V33.9451Z" fill="white"/>
<defs>
<linearGradient id="paint0_linear_4_5343" x1="15.1368" y1="5.41822" x2="-10.2878" y2="12.1649" gradientUnits="userSpaceOnUse">
<stop stop-color="#00A0FF"/>
<stop offset="0.00657" stop-color="#00A1FF"/>
<stop offset="0.2601" stop-color="#00BEFF"/>
<stop offset="0.5122" stop-color="#00D2FF"/>
<stop offset="0.7604" stop-color="#00DFFF"/>
<stop offset="1" stop-color="#00E3FF"/>
</linearGradient>
<linearGradient id="paint1_linear_4_5343" x1="30.5483" y1="19.9385" x2="-0.435005" y2="19.9385" gradientUnits="userSpaceOnUse">
<stop stop-color="#FFE000"/>
<stop offset="0.4087" stop-color="#FFBD00"/>
<stop offset="0.7754" stop-color="#FFA500"/>
<stop offset="1" stop-color="#FF9C00"/>
</linearGradient>
<linearGradient id="paint2_linear_4_5343" x1="19.0118" y1="22.8926" x2="-1.5121" y2="57.2944" gradientUnits="userSpaceOnUse">
<stop stop-color="#FF3A44"/>
<stop offset="1" stop-color="#C31162"/>
</linearGradient>
<linearGradient id="paint3_linear_4_5343" x1="-3.43601" y1="-5.54601" x2="5.72056" y2="9.8184" gradientUnits="userSpaceOnUse">
<stop stop-color="#32A071"/>
<stop offset="0.0685" stop-color="#2DA771"/>
<stop offset="0.4762" stop-color="#15CF74"/>
<stop offset="0.8009" stop-color="#06E775"/>
<stop offset="1" stop-color="#00F076"/>
</linearGradient>
</defs>
</svg>
